<svg width="2238" height="652" viewBox="0 0 2238 652" fill="none" xmlns="http://www.w3.org/2000/svg">
<g clip-path="url(#clip0_1308_2190)">
<rect width="2238" height="652" rx="100" fill="white"/>
<path opacity="0.4" d="M1027.35 233.547L2298.28 -106L2518 655.922L470 731L1027.35 233.547Z" fill="#25AAB1"/>
<path d="M217.5 167C233.667 167 247.75 169.667 259.75 175C271.75 180.333 281 188 287.5 198C294 208 297.25 219.667 297.25 233C297.25 246.333 294 258 287.5 268C281 278 271.75 285.667 259.75 291C247.75 296.333 233.667 299 217.5 299H192.25V342H133.25V167H217.5ZM213.75 253.5C221.75 253.5 227.75 251.75 231.75 248.25C235.75 244.583 237.75 239.5 237.75 233C237.75 226.5 235.75 221.5 231.75 218C227.75 214.333 221.75 212.5 213.75 212.5H192.25V253.5H213.75ZM387.1 344.5C371.933 344.5 358.266 341.5 346.1 335.5C334.1 329.333 324.683 320.917 317.85 310.25C311.016 299.417 307.6 287.167 307.6 273.5C307.6 259.833 311.016 247.667 317.85 237C324.683 226.167 334.1 217.75 346.1 211.75C358.266 205.75 371.933 202.75 387.1 202.75C402.433 202.75 416.1 205.75 428.1 211.75C440.266 217.75 449.683 226.167 456.35 237C463.183 247.667 466.6 259.833 466.6 273.5C466.6 287.167 463.183 299.417 456.35 310.25C449.683 320.917 440.266 329.333 428.1 335.5C416.1 341.5 402.433 344.5 387.1 344.5ZM387.1 300.5C393.6 300.5 398.933 298.167 403.1 293.5C407.266 288.667 409.35 282 409.35 273.5C409.35 265 407.266 258.417 403.1 253.75C398.933 249.083 393.6 246.75 387.1 246.75C380.6 246.75 375.266 249.083 371.1 253.75C366.933 258.417 364.85 265 364.85 273.5C364.85 282 366.933 288.667 371.1 293.5C375.266 298.167 380.6 300.5 387.1 300.5ZM538.033 220C548.033 208.5 562.783 202.75 582.283 202.75V252.75C577.783 252.083 573.617 251.75 569.783 251.75C550.45 251.75 540.783 261.583 540.783 281.25V342H484.283V205.25H538.033V220ZM702.709 337.25C694.209 342.083 682.626 344.5 667.959 344.5C648.792 344.5 634.042 339.917 623.709 330.75C613.376 321.417 608.209 307.5 608.209 289V254H589.459V212.75H608.209V174.5H664.709V212.75H692.709V254H664.709V288.5C664.709 292.667 665.792 295.917 667.959 298.25C670.126 300.583 672.959 301.75 676.459 301.75C681.292 301.75 685.542 300.5 689.209 298L702.709 337.25ZM778.199 202.75C802.199 202.75 820.533 208.167 833.199 219C845.866 229.667 852.199 246.167 852.199 268.5V342H799.699V324C793.199 337.667 780.283 344.5 760.949 344.5C750.116 344.5 740.866 342.667 733.199 339C725.699 335.167 719.949 330.083 715.949 323.75C712.116 317.25 710.199 310 710.199 302C710.199 288.5 715.366 278.25 725.699 271.25C736.033 264.25 751.699 260.75 772.699 260.75H795.449C793.616 250.083 785.033 244.75 769.699 244.75C763.533 244.75 757.283 245.75 750.949 247.75C744.616 249.583 739.199 252.167 734.699 255.5L716.699 218.25C724.533 213.417 733.949 209.667 744.949 207C756.116 204.167 767.199 202.75 778.199 202.75ZM777.949 310.5C781.949 310.5 785.533 309.417 788.699 307.25C791.866 305.083 794.199 301.833 795.699 297.5V288H781.699C770.199 288 764.449 291.833 764.449 299.5C764.449 302.667 765.616 305.333 767.949 307.5C770.449 309.5 773.783 310.5 777.949 310.5ZM876.617 156.5H933.117V342H876.617V156.5ZM1154.11 311.5H1087.61L1075.86 342H1015.86L1092.36 167H1150.36L1226.86 342H1165.86L1154.11 311.5ZM1137.86 269L1120.86 225L1103.86 269H1137.86ZM1325.78 202.75C1337.78 202.75 1348.78 205.667 1358.78 211.5C1368.94 217.167 1376.94 225.417 1382.78 236.25C1388.78 247.083 1391.78 259.583 1391.78 273.75C1391.78 287.917 1388.78 300.417 1382.78 311.25C1376.94 321.917 1368.94 330.167 1358.78 336C1348.78 341.667 1337.78 344.5 1325.78 344.5C1310.61 344.5 1299.03 340.583 1291.03 332.75V390.5H1234.53V205.25H1288.28V216.5C1296.44 207.333 1308.94 202.75 1325.78 202.75ZM1312.28 300.5C1318.78 300.5 1324.11 298.167 1328.28 293.5C1332.44 288.833 1334.53 282.25 1334.53 273.75C1334.53 265.25 1332.44 258.667 1328.28 254C1324.11 249.167 1318.78 246.75 1312.28 246.75C1305.78 246.75 1300.44 249.167 1296.28 254C1292.11 258.667 1290.03 265.25 1290.03 273.75C1290.03 282.25 1292.11 288.833 1296.28 293.5C1300.44 298.167 1305.78 300.5 1312.28 300.5ZM1409.58 156.5H1466.08V342H1409.58V156.5ZM1491.12 205.25H1547.62V342H1491.12V205.25ZM1519.37 194.25C1509.2 194.25 1500.95 191.583 1494.62 186.25C1488.45 180.75 1485.37 173.833 1485.37 165.5C1485.37 157.167 1488.45 150.333 1494.62 145C1500.95 139.5 1509.2 136.75 1519.37 136.75C1529.7 136.75 1537.95 139.333 1544.12 144.5C1550.29 149.667 1553.37 156.333 1553.37 164.5C1553.37 173.167 1550.29 180.333 1544.12 186C1537.95 191.5 1529.7 194.25 1519.37 194.25ZM1638.16 300L1629.16 309.75V342H1572.66V156.5H1629.16V245L1668.41 205.25H1735.16L1678.66 264.5L1739.66 342H1671.41L1638.16 300ZM1809.69 202.75C1833.69 202.75 1852.03 208.167 1864.69 219C1877.36 229.667 1883.69 246.167 1883.69 268.5V342H1831.19V324C1824.69 337.667 1811.78 344.5 1792.44 344.5C1781.61 344.5 1772.36 342.667 1764.69 339C1757.19 335.167 1751.44 330.083 1747.44 323.75C1743.61 317.25 1741.69 310 1741.69 302C1741.69 288.5 1746.86 278.25 1757.19 271.25C1767.53 264.25 1783.19 260.75 1804.19 260.75H1826.94C1825.11 250.083 1816.53 244.75 1801.19 244.75C1795.03 244.75 1788.78 245.75 1782.44 247.75C1776.11 249.583 1770.69 252.167 1766.19 255.5L1748.19 218.25C1756.03 213.417 1765.44 209.667 1776.44 207C1787.61 204.167 1798.69 202.75 1809.69 202.75ZM1809.44 310.5C1813.44 310.5 1817.03 309.417 1820.19 307.25C1823.36 305.083 1825.69 301.833 1827.19 297.5V288H1813.19C1801.69 288 1795.94 291.833 1795.94 299.5C1795.94 302.667 1797.11 305.333 1799.44 307.5C1801.94 309.5 1805.28 310.5 1809.44 310.5ZM1961.61 344.5C1949.94 344.5 1938.44 343.25 1927.11 340.75C1915.78 338.25 1906.61 335 1899.61 331L1915.11 293.75C1921.44 297.583 1928.94 300.583 1937.61 302.75C1946.28 304.917 1954.69 306 1962.86 306C1969.36 306 1973.86 305.5 1976.36 304.5C1979.03 303.333 1980.36 301.667 1980.36 299.5C1980.36 297.333 1978.69 295.833 1975.36 295C1972.19 294.167 1966.94 293.333 1959.61 292.5C1948.44 291.167 1938.94 289.5 1931.11 287.5C1923.28 285.333 1916.36 281.25 1910.36 275.25C1904.53 269.25 1901.61 260.667 1901.61 249.5C1901.61 240.667 1904.28 232.75 1909.61 225.75C1914.94 218.75 1922.86 213.167 1933.36 209C1944.03 204.833 1956.78 202.75 1971.61 202.75C1981.94 202.75 1992.03 203.75 2001.86 205.75C2011.86 207.583 2020.36 210.333 2027.36 214L2011.86 251.25C1999.86 244.583 1986.69 241.25 1972.36 241.25C1960.03 241.25 1953.86 243.417 1953.86 247.75C1953.86 249.917 1955.53 251.5 1958.86 252.5C1962.19 253.333 1967.44 254.167 1974.61 255C1985.78 256.333 1995.19 258.083 2002.86 260.25C2010.69 262.417 2017.53 266.5 2023.36 272.5C2029.36 278.5 2032.36 287.083 2032.36 298.25C2032.36 306.75 2029.69 314.5 2024.36 321.5C2019.03 328.5 2011.03 334.083 2000.36 338.25C1989.69 342.417 1976.78 344.5 1961.61 344.5ZM2049.47 205.25H2105.97V342H2049.47V205.25ZM2077.72 194.25C2067.55 194.25 2059.3 191.583 2052.97 186.25C2046.8 180.75 2043.72 173.833 2043.72 165.5C2043.72 157.167 2046.8 150.333 2052.97 145C2059.3 139.5 2067.55 136.75 2077.72 136.75C2088.05 136.75 2096.3 139.333 2102.47 144.5C2108.64 149.667 2111.72 156.333 2111.72 164.5C2111.72 173.167 2108.64 180.333 2102.47 186C2096.3 191.5 2088.05 194.25 2077.72 194.25Z" fill="#043379"/>
<path d="M127.55 420H179.3C191 420 201.3 422.15 210.2 426.45C219.2 430.65 226.15 436.7 231.05 444.6C236.05 452.5 238.55 461.8 238.55 472.5C238.55 483.2 236.05 492.5 231.05 500.4C226.15 508.3 219.2 514.4 210.2 518.7C201.3 522.9 191 525 179.3 525H127.55V420ZM177.8 497.4C185.4 497.4 191.45 495.25 195.95 490.95C200.55 486.55 202.85 480.4 202.85 472.5C202.85 464.6 200.55 458.5 195.95 454.2C191.45 449.8 185.4 447.6 177.8 447.6H162.95V497.4H177.8ZM287.176 441.45C301.576 441.45 312.576 444.7 320.176 451.2C327.776 457.6 331.576 467.5 331.576 480.9V525H300.076V514.2C296.176 522.4 288.426 526.5 276.826 526.5C270.326 526.5 264.776 525.4 260.176 523.2C255.676 520.9 252.226 517.85 249.826 514.05C247.526 510.15 246.376 505.8 246.376 501C246.376 492.9 249.476 486.75 255.676 482.55C261.876 478.35 271.276 476.25 283.876 476.25H297.526C296.426 469.85 291.276 466.65 282.076 466.65C278.376 466.65 274.626 467.25 270.826 468.45C267.026 469.55 263.776 471.1 261.076 473.1L250.276 450.75C254.976 447.85 260.626 445.6 267.226 444C273.926 442.3 280.576 441.45 287.176 441.45ZM287.026 506.1C289.426 506.1 291.576 505.45 293.476 504.15C295.376 502.85 296.776 500.9 297.676 498.3V492.6H289.276C282.376 492.6 278.926 494.9 278.926 499.5C278.926 501.4 279.626 503 281.026 504.3C282.526 505.5 284.526 506.1 287.026 506.1ZM378.327 526.5C371.327 526.5 364.427 525.75 357.627 524.25C350.827 522.75 345.327 520.8 341.127 518.4L350.427 496.05C354.227 498.35 358.727 500.15 363.927 501.45C369.127 502.75 374.177 503.4 379.077 503.4C382.977 503.4 385.677 503.1 387.177 502.5C388.777 501.8 389.577 500.8 389.577 499.5C389.577 498.2 388.577 497.3 386.577 496.8C384.677 496.3 381.527 495.8 377.127 495.3C370.427 494.5 364.727 493.5 360.027 492.3C355.327 491 351.177 488.55 347.577 484.95C344.077 481.35 342.327 476.2 342.327 469.5C342.327 464.2 343.927 459.45 347.127 455.25C350.327 451.05 355.077 447.7 361.377 445.2C367.777 442.7 375.427 441.45 384.327 441.45C390.527 441.45 396.577 442.05 402.477 443.25C408.477 444.35 413.577 446 417.777 448.2L408.477 470.55C401.277 466.55 393.377 464.55 384.777 464.55C377.377 464.55 373.677 465.85 373.677 468.45C373.677 469.75 374.677 470.7 376.677 471.3C378.677 471.8 381.827 472.3 386.127 472.8C392.827 473.6 398.477 474.65 403.077 475.95C407.777 477.25 411.877 479.7 415.377 483.3C418.977 486.9 420.777 492.05 420.777 498.75C420.777 503.85 419.177 508.5 415.977 512.7C412.777 516.9 407.977 520.25 401.577 522.75C395.177 525.25 387.427 526.5 378.327 526.5ZM488.041 441.45C498.141 441.45 506.241 444.5 512.341 450.6C518.541 456.7 521.641 465.9 521.641 478.2V525H487.741V484.05C487.741 474.65 484.391 469.95 477.691 469.95C473.891 469.95 470.791 471.3 468.391 474C466.091 476.6 464.941 480.75 464.941 486.45V525H431.041V413.7H464.941V449.55C471.241 444.15 478.941 441.45 488.041 441.45ZM591.113 441.45C598.313 441.45 604.913 443.2 610.913 446.7C617.013 450.1 621.813 455.05 625.313 461.55C628.913 467.95 630.713 475.4 630.713 483.9C630.713 492.4 628.913 499.9 625.313 506.4C621.813 512.9 617.013 517.9 610.913 521.4C604.913 524.8 598.313 526.5 591.113 526.5C581.013 526.5 573.513 523.75 568.613 518.25V525H536.363V413.7H570.263V448.5C575.063 443.8 582.013 441.45 591.113 441.45ZM583.013 500.1C586.913 500.1 590.113 498.7 592.613 495.9C595.113 493 596.363 489 596.363 483.9C596.363 478.8 595.113 474.85 592.613 472.05C590.113 469.25 586.913 467.85 583.013 467.85C579.113 467.85 575.913 469.25 573.413 472.05C570.913 474.85 569.663 478.8 569.663 483.9C569.663 489 570.913 493 573.413 495.9C575.913 498.7 579.113 500.1 583.013 500.1ZM684.743 526.5C675.643 526.5 667.443 524.7 660.143 521.1C652.943 517.4 647.293 512.35 643.193 505.95C639.093 499.45 637.043 492.1 637.043 483.9C637.043 475.7 639.093 468.4 643.193 462C647.293 455.5 652.943 450.45 660.143 446.85C667.443 443.25 675.643 441.45 684.743 441.45C693.943 441.45 702.143 443.25 709.343 446.85C716.643 450.45 722.293 455.5 726.293 462C730.393 468.4 732.443 475.7 732.443 483.9C732.443 492.1 730.393 499.45 726.293 505.95C722.293 512.35 716.643 517.4 709.343 521.1C702.143 524.7 693.943 526.5 684.743 526.5ZM684.743 500.1C688.643 500.1 691.843 498.7 694.343 495.9C696.843 493 698.093 489 698.093 483.9C698.093 478.8 696.843 474.85 694.343 472.05C691.843 469.25 688.643 467.85 684.743 467.85C680.843 467.85 677.643 469.25 675.143 472.05C672.643 474.85 671.393 478.8 671.393 483.9C671.393 489 672.643 493 675.143 495.9C677.643 498.7 680.843 500.1 684.743 500.1ZM777.752 441.45C792.152 441.45 803.152 444.7 810.752 451.2C818.352 457.6 822.152 467.5 822.152 480.9V525H790.652V514.2C786.752 522.4 779.002 526.5 767.402 526.5C760.902 526.5 755.352 525.4 750.752 523.2C746.252 520.9 742.802 517.85 740.402 514.05C738.102 510.15 736.952 505.8 736.952 501C736.952 492.9 740.052 486.75 746.252 482.55C752.452 478.35 761.852 476.25 774.452 476.25H788.102C787.002 469.85 781.852 466.65 772.652 466.65C768.952 466.65 765.202 467.25 761.402 468.45C757.602 469.55 754.352 471.1 751.652 473.1L740.852 450.75C745.552 447.85 751.202 445.6 757.802 444C764.502 442.3 771.152 441.45 777.752 441.45ZM777.602 506.1C780.002 506.1 782.152 505.45 784.052 504.15C785.952 502.85 787.352 500.9 788.252 498.3V492.6H779.852C772.952 492.6 769.502 494.9 769.502 499.5C769.502 501.4 770.202 503 771.602 504.3C773.102 505.5 775.102 506.1 777.602 506.1ZM869.053 451.8C875.053 444.9 883.903 441.45 895.603 441.45V471.45C892.903 471.05 890.403 470.85 888.103 470.85C876.503 470.85 870.703 476.75 870.703 488.55V525H836.803V442.95H869.053V451.8ZM995.229 413.7V525H962.979V518.25C958.079 523.75 950.579 526.5 940.479 526.5C933.279 526.5 926.629 524.8 920.529 521.4C914.529 517.9 909.729 512.9 906.129 506.4C902.629 499.9 900.879 492.4 900.879 483.9C900.879 475.4 902.629 467.95 906.129 461.55C909.729 455.05 914.529 450.1 920.529 446.7C926.629 443.2 933.279 441.45 940.479 441.45C949.579 441.45 956.529 443.8 961.329 448.5V413.7H995.229ZM948.579 500.1C952.479 500.1 955.679 498.7 958.179 495.9C960.679 493 961.929 489 961.929 483.9C961.929 478.8 960.679 474.85 958.179 472.05C955.679 469.25 952.479 467.85 948.579 467.85C944.679 467.85 941.479 469.25 938.979 472.05C936.479 474.85 935.229 478.8 935.229 483.9C935.229 489 936.479 493 938.979 495.9C941.479 498.7 944.679 500.1 948.579 500.1ZM1127.81 506.7H1087.91L1080.86 525H1044.86L1090.76 420H1125.56L1171.46 525H1134.86L1127.81 506.7ZM1118.06 481.2L1107.86 454.8L1097.66 481.2H1118.06ZM1230.81 441.45C1238.01 441.45 1244.61 443.2 1250.61 446.7C1256.71 450.1 1261.51 455.05 1265.01 461.55C1268.61 468.05 1270.41 475.55 1270.41 484.05C1270.41 492.55 1268.61 500.05 1265.01 506.55C1261.51 512.95 1256.71 517.9 1250.61 521.4C1244.61 524.8 1238.01 526.5 1230.81 526.5C1221.71 526.5 1214.76 524.15 1209.96 519.45V554.1H1176.06V442.95H1208.31V449.7C1213.21 444.2 1220.71 441.45 1230.81 441.45ZM1222.71 500.1C1226.61 500.1 1229.81 498.7 1232.31 495.9C1234.81 493.1 1236.06 489.15 1236.06 484.05C1236.06 478.95 1234.81 475 1232.31 472.2C1229.81 469.3 1226.61 467.85 1222.71 467.85C1218.81 467.85 1215.61 469.3 1213.11 472.2C1210.61 475 1209.36 478.95 1209.36 484.05C1209.36 489.15 1210.61 493.1 1213.11 495.9C1215.61 498.7 1218.81 500.1 1222.71 500.1ZM1341.54 522.15C1336.44 525.05 1329.49 526.5 1320.69 526.5C1309.19 526.5 1300.34 523.75 1294.14 518.25C1287.94 512.65 1284.84 504.3 1284.84 493.2V472.2H1273.59V447.45H1284.84V424.5H1318.74V447.45H1335.54V472.2H1318.74V492.9C1318.74 495.4 1319.39 497.35 1320.69 498.75C1321.99 500.15 1323.69 500.85 1325.79 500.85C1328.69 500.85 1331.24 500.1 1333.44 498.6L1341.54 522.15ZM1350.08 442.95H1383.98V525H1350.08V442.95ZM1367.03 436.35C1360.93 436.35 1355.98 434.75 1352.18 431.55C1348.48 428.25 1346.63 424.1 1346.63 419.1C1346.63 414.1 1348.48 410 1352.18 406.8C1355.98 403.5 1360.93 401.85 1367.03 401.85C1373.23 401.85 1378.18 403.4 1381.88 406.5C1385.58 409.6 1387.43 413.6 1387.43 418.5C1387.43 423.7 1385.58 428 1381.88 431.4C1378.18 434.7 1373.23 436.35 1367.03 436.35ZM1438.31 499.8L1432.91 505.65V525H1399.01V413.7H1432.91V466.8L1456.46 442.95H1496.51L1462.61 478.5L1499.21 525H1458.26L1438.31 499.8ZM1541.23 441.45C1555.63 441.45 1566.63 444.7 1574.23 451.2C1581.83 457.6 1585.63 467.5 1585.63 480.9V525H1554.13V514.2C1550.23 522.4 1542.48 526.5 1530.88 526.5C1524.38 526.5 1518.83 525.4 1514.23 523.2C1509.73 520.9 1506.28 517.85 1503.88 514.05C1501.58 510.15 1500.43 505.8 1500.43 501C1500.43 492.9 1503.53 486.75 1509.73 482.55C1515.93 478.35 1525.33 476.25 1537.93 476.25H1551.58C1550.48 469.85 1545.33 466.65 1536.13 466.65C1532.43 466.65 1528.68 467.25 1524.88 468.45C1521.08 469.55 1517.83 471.1 1515.13 473.1L1504.33 450.75C1509.03 447.85 1514.68 445.6 1521.28 444C1527.98 442.3 1534.63 441.45 1541.23 441.45ZM1541.08 506.1C1543.48 506.1 1545.63 505.45 1547.53 504.15C1549.43 502.85 1550.83 500.9 1551.73 498.3V492.6H1543.33C1536.43 492.6 1532.98 494.9 1532.98 499.5C1532.98 501.4 1533.68 503 1535.08 504.3C1536.58 505.5 1538.58 506.1 1541.08 506.1Z" fill="#353636"/>
</g>
<defs>
<clipPath id="clip0_1308_2190">
<rect width="2238" height="652" rx="100" fill="white"/>
</clipPath>
</defs>
</svg>
