<svg width="2238" height="652" viewBox="0 0 2238 652" fill="none" xmlns="http://www.w3.org/2000/svg">
<g clip-path="url(#clip0_1308_2190)">
<rect width="2238" height="652" rx="100" fill="white"/>
<path opacity="0.4" d="M1027.35 233.547L2298.28 -106L2518 655.922L470 731L1027.35 233.547Z" fill="#E6B3B3"/>
<path d="M220.25 167V342H161.25V211.5H131.25V167H220.25ZM381.742 296.25V342H241.492V305.75L304.742 247.25C310.242 242.083 313.909 237.667 315.742 234C317.576 230.333 318.492 226.75 318.492 223.25C318.492 218.917 316.992 215.583 313.992 213.25C311.159 210.75 306.992 209.5 301.492 209.5C296.159 209.5 291.159 210.917 286.492 213.75C281.826 216.583 278.242 220.583 275.742 225.75L231.242 203.5C237.909 191 247.659 181.167 260.492 174C273.326 166.667 288.826 163 306.992 163C320.826 163 333.076 165.25 343.742 169.75C354.409 174.25 362.742 180.667 368.742 189C374.742 197.333 377.742 206.917 377.742 217.75C377.742 227.417 375.659 236.5 371.492 245C367.492 253.333 359.576 262.833 347.742 273.5L322.742 296.25H381.742ZM533.842 296.25V342H393.592V305.75L456.842 247.25C462.342 242.083 466.008 237.667 467.842 234C469.675 230.333 470.592 226.75 470.592 223.25C470.592 218.917 469.092 215.583 466.092 213.25C463.258 210.75 459.092 209.5 453.592 209.5C448.258 209.5 443.258 210.917 438.592 213.75C433.925 216.583 430.342 220.583 427.842 225.75L383.342 203.5C390.008 191 399.758 181.167 412.592 174C425.425 166.667 440.925 163 459.092 163C472.925 163 485.175 165.25 495.842 169.75C506.508 174.25 514.842 180.667 520.842 189C526.842 197.333 529.842 206.917 529.842 217.75C529.842 227.417 527.758 236.5 523.592 245C519.592 253.333 511.675 262.833 499.842 273.5L474.842 296.25H533.842ZM718.393 346C699.893 346 683.226 342.167 668.393 334.5C653.559 326.667 641.893 315.833 633.393 302C625.059 288 620.893 272.167 620.893 254.5C620.893 236.833 625.059 221.083 633.393 207.25C641.893 193.25 653.559 182.417 668.393 174.75C683.226 166.917 699.893 163 718.393 163C735.393 163 750.559 166 763.893 172C777.226 178 788.226 186.667 796.893 198L759.643 231.25C748.809 217.583 736.059 210.75 721.393 210.75C709.059 210.75 699.143 214.75 691.643 222.75C684.143 230.583 680.393 241.167 680.393 254.5C680.393 267.833 684.143 278.5 691.643 286.5C699.143 294.333 709.059 298.25 721.393 298.25C736.059 298.25 748.809 291.417 759.643 277.75L796.893 311C788.226 322.333 777.226 331 763.893 337C750.559 343 735.393 346 718.393 346ZM873.428 202.75C897.428 202.75 915.761 208.167 928.428 219C941.094 229.667 947.428 246.167 947.428 268.5V342H894.928V324C888.428 337.667 875.511 344.5 856.178 344.5C845.344 344.5 836.094 342.667 828.428 339C820.928 335.167 815.178 330.083 811.178 323.75C807.344 317.25 805.428 310 805.428 302C805.428 288.5 810.594 278.25 820.928 271.25C831.261 264.25 846.928 260.75 867.928 260.75H890.678C888.844 250.083 880.261 244.75 864.928 244.75C858.761 244.75 852.511 245.75 846.178 247.75C839.844 249.583 834.428 252.167 829.928 255.5L811.928 218.25C819.761 213.417 829.178 209.667 840.178 207C851.344 204.167 862.428 202.75 873.428 202.75ZM873.178 310.5C877.178 310.5 880.761 309.417 883.928 307.25C887.094 305.083 889.428 301.833 890.928 297.5V288H876.928C865.428 288 859.678 291.833 859.678 299.5C859.678 302.667 860.844 305.333 863.178 307.5C865.678 309.5 869.011 310.5 873.178 310.5ZM971.846 156.5H1028.35V342H971.846V156.5ZM1053.39 156.5H1109.89V342H1053.39V156.5ZM1302.13 346C1283.63 346 1266.97 342.167 1252.13 334.5C1237.3 326.667 1225.63 315.833 1217.13 302C1208.8 288 1204.63 272.167 1204.63 254.5C1204.63 236.833 1208.8 221.083 1217.13 207.25C1225.63 193.25 1237.3 182.417 1252.13 174.75C1266.97 166.917 1283.63 163 1302.13 163C1319.13 163 1334.3 166 1347.63 172C1360.97 178 1371.97 186.667 1380.63 198L1343.38 231.25C1332.55 217.583 1319.8 210.75 1305.13 210.75C1292.8 210.75 1282.88 214.75 1275.38 222.75C1267.88 230.583 1264.13 241.167 1264.13 254.5C1264.13 267.833 1267.88 278.5 1275.38 286.5C1282.88 294.333 1292.8 298.25 1305.13 298.25C1319.8 298.25 1332.55 291.417 1343.38 277.75L1380.63 311C1371.97 322.333 1360.97 331 1347.63 337C1334.3 343 1319.13 346 1302.13 346ZM1537.76 273.5C1537.76 274.333 1537.51 278.75 1537.01 286.75H1442.01C1444.01 291.917 1447.34 295.917 1452.01 298.75C1456.67 301.417 1462.51 302.75 1469.51 302.75C1475.51 302.75 1480.51 302 1484.51 300.5C1488.67 299 1493.17 296.417 1498.01 292.75L1527.51 322.5C1514.17 337.167 1494.26 344.5 1467.76 344.5C1451.26 344.5 1436.76 341.5 1424.26 335.5C1411.76 329.333 1402.09 320.833 1395.26 310C1388.42 299.167 1385.01 287 1385.01 273.5C1385.01 259.833 1388.34 247.667 1395.01 237C1401.84 226.167 1411.09 217.75 1422.76 211.75C1434.59 205.75 1447.84 202.75 1462.51 202.75C1476.34 202.75 1488.92 205.5 1500.26 211C1511.76 216.5 1520.84 224.583 1527.51 235.25C1534.34 245.917 1537.76 258.667 1537.76 273.5ZM1463.01 241.25C1457.17 241.25 1452.34 242.833 1448.51 246C1444.67 249.167 1442.17 253.667 1441.01 259.5H1485.01C1483.84 253.833 1481.34 249.417 1477.51 246.25C1473.67 242.917 1468.84 241.25 1463.01 241.25ZM1650.59 202.75C1667.42 202.75 1680.92 207.833 1691.09 218C1701.42 228.167 1706.59 243.5 1706.59 264V342H1650.09V273.75C1650.09 258.083 1644.5 250.25 1633.34 250.25C1627 250.25 1621.84 252.5 1617.84 257C1614 261.333 1612.09 268.25 1612.09 277.75V342H1555.59V205.25H1609.34V218.75C1614.67 213.417 1620.84 209.417 1627.84 206.75C1634.84 204.083 1642.42 202.75 1650.59 202.75ZM1831.87 337.25C1823.37 342.083 1811.79 344.5 1797.12 344.5C1777.96 344.5 1763.21 339.917 1752.87 330.75C1742.54 321.417 1737.37 307.5 1737.37 289V254H1718.62V212.75H1737.37V174.5H1793.87V212.75H1821.87V254H1793.87V288.5C1793.87 292.667 1794.96 295.917 1797.12 298.25C1799.29 300.583 1802.12 301.75 1805.62 301.75C1810.46 301.75 1814.71 300.5 1818.37 298L1831.87 337.25ZM1987.95 273.5C1987.95 274.333 1987.7 278.75 1987.2 286.75H1892.2C1894.2 291.917 1897.53 295.917 1902.2 298.75C1906.87 301.417 1912.7 302.75 1919.7 302.75C1925.7 302.75 1930.7 302 1934.7 300.5C1938.87 299 1943.37 296.417 1948.2 292.75L1977.7 322.5C1964.37 337.167 1944.45 344.5 1917.95 344.5C1901.45 344.5 1886.95 341.5 1874.45 335.5C1861.95 329.333 1852.28 320.833 1845.45 310C1838.62 299.167 1835.2 287 1835.2 273.5C1835.2 259.833 1838.53 247.667 1845.2 237C1852.03 226.167 1861.28 217.75 1872.95 211.75C1884.78 205.75 1898.03 202.75 1912.7 202.75C1926.53 202.75 1939.12 205.5 1950.45 211C1961.95 216.5 1971.03 224.583 1977.7 235.25C1984.53 245.917 1987.95 258.667 1987.95 273.5ZM1913.2 241.25C1907.37 241.25 1902.53 242.833 1898.7 246C1894.87 249.167 1892.37 253.667 1891.2 259.5H1935.2C1934.03 253.833 1931.53 249.417 1927.7 246.25C1923.87 242.917 1919.03 241.25 1913.2 241.25ZM2059.53 220C2069.53 208.5 2084.28 202.75 2103.78 202.75V252.75C2099.28 252.083 2095.11 251.75 2091.28 251.75C2071.95 251.75 2062.28 261.583 2062.28 281.25V342H2005.78V205.25H2059.53V220Z" fill="#D61212"/>
<path d="M138.55 420H173.95V497.55H221.35V525H138.55V420ZM268.293 441.45C282.693 441.45 293.693 444.7 301.293 451.2C308.893 457.6 312.693 467.5 312.693 480.9V525H281.193V514.2C277.293 522.4 269.543 526.5 257.943 526.5C251.443 526.5 245.893 525.4 241.293 523.2C236.793 520.9 233.343 517.85 230.943 514.05C228.643 510.15 227.493 505.8 227.493 501C227.493 492.9 230.593 486.75 236.793 482.55C242.993 478.35 252.393 476.25 264.993 476.25H278.643C277.543 469.85 272.393 466.65 263.193 466.65C259.493 466.65 255.743 467.25 251.943 468.45C248.143 469.55 244.893 471.1 242.193 473.1L231.393 450.75C236.093 447.85 241.743 445.6 248.343 444C255.043 442.3 261.693 441.45 268.293 441.45ZM268.143 506.1C270.543 506.1 272.693 505.45 274.593 504.15C276.493 502.85 277.893 500.9 278.793 498.3V492.6H270.393C263.493 492.6 260.043 494.9 260.043 499.5C260.043 501.4 260.743 503 262.143 504.3C263.643 505.5 265.643 506.1 268.143 506.1ZM417.229 442.95L383.479 526.65C379.179 537.35 373.829 544.85 367.429 549.15C361.029 553.45 353.179 555.6 343.879 555.6C339.279 555.6 334.629 554.9 329.929 553.5C325.329 552.2 321.679 550.45 318.979 548.25L330.229 525C331.929 526.3 333.829 527.35 335.929 528.15C338.129 528.95 340.229 529.35 342.229 529.35C345.929 529.35 348.729 528.25 350.629 526.05L316.129 442.95H350.929L367.879 486.9L385.129 442.95H417.229ZM456.232 441.45C470.632 441.45 481.632 444.7 489.232 451.2C496.832 457.6 500.632 467.5 500.632 480.9V525H469.132V514.2C465.232 522.4 457.482 526.5 445.882 526.5C439.382 526.5 433.832 525.4 429.232 523.2C424.732 520.9 421.282 517.85 418.882 514.05C416.582 510.15 415.432 505.8 415.432 501C415.432 492.9 418.532 486.75 424.732 482.55C430.932 478.35 440.332 476.25 452.932 476.25H466.582C465.482 469.85 460.332 466.65 451.132 466.65C447.432 466.65 443.682 467.25 439.882 468.45C436.082 469.55 432.832 471.1 430.132 473.1L419.332 450.75C424.032 447.85 429.682 445.6 436.282 444C442.982 442.3 449.632 441.45 456.232 441.45ZM456.082 506.1C458.482 506.1 460.632 505.45 462.532 504.15C464.432 502.85 465.832 500.9 466.732 498.3V492.6H458.332C451.432 492.6 447.982 494.9 447.982 499.5C447.982 501.4 448.682 503 450.082 504.3C451.582 505.5 453.582 506.1 456.082 506.1ZM572.283 441.45C582.383 441.45 590.483 444.5 596.583 450.6C602.783 456.7 605.883 465.9 605.883 478.2V525H571.983V484.05C571.983 474.65 568.633 469.95 561.933 469.95C558.133 469.95 555.033 471.3 552.633 474C550.333 476.6 549.183 480.75 549.183 486.45V525H515.283V442.95H547.533V451.05C550.733 447.85 554.433 445.45 558.633 443.85C562.833 442.25 567.383 441.45 572.283 441.45ZM657.355 441.45C671.755 441.45 682.755 444.7 690.355 451.2C697.955 457.6 701.755 467.5 701.755 480.9V525H670.255V514.2C666.355 522.4 658.605 526.5 647.005 526.5C640.505 526.5 634.955 525.4 630.355 523.2C625.855 520.9 622.405 517.85 620.005 514.05C617.705 510.15 616.555 505.8 616.555 501C616.555 492.9 619.655 486.75 625.855 482.55C632.055 478.35 641.455 476.25 654.055 476.25H667.705C666.605 469.85 661.455 466.65 652.255 466.65C648.555 466.65 644.805 467.25 641.005 468.45C637.205 469.55 633.955 471.1 631.255 473.1L620.455 450.75C625.155 447.85 630.805 445.6 637.405 444C644.105 442.3 650.755 441.45 657.355 441.45ZM657.205 506.1C659.605 506.1 661.755 505.45 663.655 504.15C665.555 502.85 666.955 500.9 667.855 498.3V492.6H659.455C652.555 492.6 649.105 494.9 649.105 499.5C649.105 501.4 649.805 503 651.205 504.3C652.705 505.5 654.705 506.1 657.205 506.1ZM773.406 441.45C783.506 441.45 791.606 444.5 797.706 450.6C803.906 456.7 807.006 465.9 807.006 478.2V525H773.106V484.05C773.106 474.65 769.756 469.95 763.056 469.95C759.256 469.95 756.156 471.3 753.756 474C751.456 476.6 750.306 480.75 750.306 486.45V525H716.406V442.95H748.656V451.05C751.856 447.85 755.556 445.45 759.756 443.85C763.956 442.25 768.506 441.45 773.406 441.45ZM867.749 420H919.499C931.199 420 941.499 422.15 950.399 426.45C959.399 430.65 966.349 436.7 971.249 444.6C976.249 452.5 978.749 461.8 978.749 472.5C978.749 483.2 976.249 492.5 971.249 500.4C966.349 508.3 959.399 514.4 950.399 518.7C941.499 522.9 931.199 525 919.499 525H867.749V420ZM917.999 497.4C925.599 497.4 931.649 495.25 936.149 490.95C940.749 486.55 943.049 480.4 943.049 472.5C943.049 464.6 940.749 458.5 936.149 454.2C931.649 449.8 925.599 447.6 917.999 447.6H903.149V497.4H917.999ZM1027.38 441.45C1041.78 441.45 1052.78 444.7 1060.38 451.2C1067.98 457.6 1071.78 467.5 1071.78 480.9V525H1040.28V514.2C1036.38 522.4 1028.63 526.5 1017.03 526.5C1010.53 526.5 1004.98 525.4 1000.38 523.2C995.875 520.9 992.425 517.85 990.025 514.05C987.725 510.15 986.575 505.8 986.575 501C986.575 492.9 989.675 486.75 995.875 482.55C1002.08 478.35 1011.48 476.25 1024.08 476.25H1037.73C1036.63 469.85 1031.48 466.65 1022.28 466.65C1018.58 466.65 1014.83 467.25 1011.03 468.45C1007.23 469.55 1003.98 471.1 1001.28 473.1L990.475 450.75C995.175 447.85 1000.83 445.6 1007.43 444C1014.13 442.3 1020.78 441.45 1027.38 441.45ZM1027.22 506.1C1029.63 506.1 1031.78 505.45 1033.68 504.15C1035.58 502.85 1036.98 500.9 1037.88 498.3V492.6H1029.48C1022.58 492.6 1019.13 494.9 1019.13 499.5C1019.13 501.4 1019.83 503 1021.23 504.3C1022.73 505.5 1024.73 506.1 1027.22 506.1ZM1118.68 451.8C1124.68 444.9 1133.53 441.45 1145.23 441.45V471.45C1142.53 471.05 1140.03 470.85 1137.73 470.85C1126.13 470.85 1120.33 476.75 1120.33 488.55V525H1086.43V442.95H1118.68V451.8ZM1244.53 442.95V525H1212.28V517.2C1209.28 520.3 1205.78 522.65 1201.78 524.25C1197.78 525.75 1193.53 526.5 1189.03 526.5C1178.63 526.5 1170.28 523.35 1163.98 517.05C1157.68 510.65 1154.53 501.05 1154.53 488.25V442.95H1188.43V482.4C1188.43 488 1189.33 492 1191.13 494.4C1192.93 496.8 1195.58 498 1199.08 498C1202.38 498 1205.13 496.7 1207.33 494.1C1209.53 491.4 1210.63 487.2 1210.63 481.5V442.95H1244.53ZM1291.82 451.8C1297.82 444.9 1306.67 441.45 1318.37 441.45V471.45C1315.67 471.05 1313.17 470.85 1310.87 470.85C1299.27 470.85 1293.47 476.75 1293.47 488.55V525H1259.57V442.95H1291.82V451.8ZM1364 441.45C1378.4 441.45 1389.4 444.7 1397 451.2C1404.6 457.6 1408.4 467.5 1408.4 480.9V525H1376.9V514.2C1373 522.4 1365.25 526.5 1353.65 526.5C1347.15 526.5 1341.6 525.4 1337 523.2C1332.5 520.9 1329.05 517.85 1326.65 514.05C1324.35 510.15 1323.2 505.8 1323.2 501C1323.2 492.9 1326.3 486.75 1332.5 482.55C1338.7 478.35 1348.1 476.25 1360.7 476.25H1374.35C1373.25 469.85 1368.1 466.65 1358.9 466.65C1355.2 466.65 1351.45 467.25 1347.65 468.45C1343.85 469.55 1340.6 471.1 1337.9 473.1L1327.1 450.75C1331.8 447.85 1337.45 445.6 1344.05 444C1350.75 442.3 1357.4 441.45 1364 441.45ZM1363.85 506.1C1366.25 506.1 1368.4 505.45 1370.3 504.15C1372.2 502.85 1373.6 500.9 1374.5 498.3V492.6H1366.1C1359.2 492.6 1355.75 494.9 1355.75 499.5C1355.75 501.4 1356.45 503 1357.85 504.3C1359.35 505.5 1361.35 506.1 1363.85 506.1ZM1483.5 522.15C1478.4 525.05 1471.45 526.5 1462.65 526.5C1451.15 526.5 1442.3 523.75 1436.1 518.25C1429.9 512.65 1426.8 504.3 1426.8 493.2V472.2H1415.55V447.45H1426.8V424.5H1460.7V447.45H1477.5V472.2H1460.7V492.9C1460.7 495.4 1461.35 497.35 1462.65 498.75C1463.95 500.15 1465.65 500.85 1467.75 500.85C1470.65 500.85 1473.2 500.1 1475.4 498.6L1483.5 522.15Z" fill="#043379"/>
</g>
<defs>
<clipPath id="clip0_1308_2190">
<rect width="2238" height="652" rx="100" fill="white"/>
</clipPath>
</defs>
</svg>
